<?xml version="1.0" encoding="utf-8"?>
<!-- Generator: Adobe Illustrator 22.1.0, SVG Export Plug-In . SVG Version: 6.00 Build 0)  -->
<svg version="1.1" id="Layer_1" xmlns="http://www.w3.org/2000/svg" xmlns:xlink="http://www.w3.org/1999/xlink" x="0px" y="0px"
	 viewBox="0 0 288 216" style="enable-background:new 0 0 288 216;" xml:space="preserve">
<style type="text/css">
	.st0{fill:#664DA0;}
	.st1{fill:#7E69AF;}
	.st2{fill:#9786BF;}
	.st3{fill:#B4A8D2;}
	.st4{fill:#4D3F68;}
	.st5{opacity:0.45;}
	.st6{fill:#D5CFE7;}
	.st7{fill:#FFFFFF;stroke:#020202;stroke-width:0.75;stroke-miterlimit:10;}
</style>
<g>
	<path class="st0" d="M437,53.8c-2.2-3-18,3-31.8,11.7c-13,8.2-30.8,19.3-36.3,40.2c-1.7,6.2-6.1,22.9,4.6,33.8
		c9.8,10,28,10.8,38.3,3.6c12.9-8.9,12.7-17.8,12.3-29.4c-0.3-10.9-3-14.8-1.5-22.7C425.7,74.2,439.1,56.7,437,53.8z"/>
	<path class="st1" d="M387.7,103.6c-3.6,1.1-2.6,17.4,1.7,32.9c4,14.5,9.5,34.3,28.3,45.8c5.6,3.4,20.7,12.7,34.7,6.2
		c12.8-5.9,19.3-22.4,15.4-34.1c-4.8-14.6-13.6-17.1-25.2-20.4c-10.9-3.1-15.5-1.8-22.8-5.6C404.2,120.3,391.2,102.5,387.7,103.6z"
		/>
	<path class="st2" d="M421.4,164.3c0,3.6,16.3,7.8,32.9,8.6c15.5,0.8,36.6,1.8,53.8-11.9c5.1-4.1,18.9-15.1,16.8-30
		c-1.9-13.6-16.1-24.6-28.8-24.7c-15.9-0.1-21,7.2-27.8,16.8c-6.4,9-6.5,13.7-12.6,19.3C443,154.2,421.5,160.7,421.4,164.3z"/>
	<path class="st3" d="M491.6,152c3.6,1.2,12.7-12.6,18.7-27.6c5.5-14,13.1-33.1,4.9-53.2c-2.4-6-9-22-24.3-24.8
		c-14-2.5-29.2,7.2-33.2,18.8c-5,14.6,0.6,21.6,7.9,30.8c6.9,8.7,11.4,10.2,15.1,17.5C488.3,129.1,488.1,150.9,491.6,152z"/>
	<path class="st4" d="M501.2,83.8c2.2-2.9-8.5-15.6-21.3-25.7c-12-9.4-28.5-22.3-50.8-21c-6.6,0.4-24.4,1.5-31.9,14.7
		c-6.8,12.1-2,29.1,8.3,36.4c12.8,9.1,21.4,6.1,32.8,2.2c10.7-3.7,13.6-7.4,21.9-8.4C477.7,79.7,499,86.6,501.2,83.8z"/>
	<path class="st0" d="M394.2,74.4c0.3,11.8,9.8,16.4,19.9,19c2,0.5,5.1,1.5,8,2.9c0-1.6,0.1-3.4,0.4-5.4
		c3.2-16.8,16.6-34.3,14.5-37.2c-2.2-3-18,3-31.8,11.7c-3.5,2.2-7.3,4.6-11.2,7.4C394.1,73.4,394.2,73.9,394.2,74.4z"/>
</g>
<g>
	<g id="ny1b3G_1_" class="st5">
		<g>
			<path class="st6" d="M272.3,152c0,2.8-0.7,3.5-3.3,3.5c-37.9-0.1-75.7-0.1-113.6-0.1c-7.5,0-31,0-31,0l0,0c0,0,0,1.9,0,2.5
				c0,1.2-0.1,3.4-0.1,7.5c-4.4,1-6.1,0.3-6.8-0.6c-0.5-0.7-0.8-1.9-1.9-2.1c-0.3-0.1-0.7-0.1-1.3,0.2c-1.7,0.8-2.6,2.3-2.6,4.3
				c0,0.3,0.1,0.5,0.1,0.6c-3.6,0.6-7.1-0.3-10.7,0.5c-1,0.3-2.2-0.1-3.3-0.4c-1.8-0.5-3.5-0.9-3.9,1.9c-0.2,1.1-1,0.8-1.7,0.7
				c-1.4-0.2-2.7-0.5-4.1-0.7c-2.3-0.4-4.2,0.1-4.3,3.4c-3.1-1.7-4.7-4.1-4.8-7.8c-0.1-2.8-2.1-4.5-4.7-4.5c-2.4,0-3.8-2-3.1-4.4
				c0.3-1.2,0.1-2.4-0.9-3c-6.5-4.1-5.7-11.8-7-13.4c-0.5-0.6-1.4-1.7-2.7-1.8c-0.3,0-1,0-1.6,0.1c-0.2,0-0.6,0.1-1.2,0.4
				c-1.6,0.6-1.9,1.1-3.1,1.3c-0.2,0-0.4,0.1-1,0.2c-0.5,0.1-1.2,0.2-1.8,0.2c0,0-2,0.2-4-0.4c0,0-0.1,0-0.2-0.1
				c-1.2-1.4,0.9-2.4,0.8-3.6c0-0.3-0.2-0.5-0.3-0.7c-1.1-1.8-0.5-5.1-0.1-7.1c0.4-2.2,0.7-2.2,0.8-3.7c0.1-2-0.4-2.3-0.3-3.8
				c0-3.2,2.3-5.4,3.7-9.9c0.1-0.3,0.4-1.3,0-1.5c-0.3-0.2-0.8,0.4-1.9,0.6c-1.1,0.1-1.1-0.4-2.5-0.4c-0.9,0-1.3,0.2-1.7-0.1
				c-0.3-0.2-0.5-0.5-0.6-1c-0.1-0.7-0.6-1.3-1.3-1c-1.3,0.6-1.8-1-2.1-1c-3.5-0.7-3-5.1-5.7-6.8c-1.9-1.2-3.7-3.7-5.3-5.9
				C31,93.7,30.6,93,30.2,93c-3.4-0.1-5.1-3.7-8.5-4.3c0.9-0.8,2.4-1.4,0.8-2.7c-1.4-1.1,0.7-2,0-3.4c-1.6-2.9-3.3-5.6-5.6-7.8
				c-1.1-1.1-1.7-2-1.7-3.7c0.1-8,0.1-15.9,0-23.9c0-1.7,0.5-2.1,1.9-2c1.1,0.1,2.2,0,3.4,0h247c4.8,0,4.8,0,4.8,5.1
				C272.3,84.2,272.2,118.1,272.3,152z"/>
		</g>
	</g>
	<path class="st7" d="M278.3,127.3c0-27.8,0-55.6,0-83.4c0-5.2,0.4-4.4-3.7-4.4c-87.2,0-174.5,0-261.7,0c-0.9,0-1.8,0-2.7,0.1
		c-1.2,0.1-1.6,0.8-1.6,2.1C8.6,50,8.8,58.4,8.6,66.7c0,3,0.4,5.1,2.8,7c1.6,1.3,3,3.3,3.9,5.3c0.9,2.2,1,4.8-0.1,7.1
		c-0.7,1.5,0.4,1.8,1.2,1.9c3.2,0.6,5,4.5,8.5,4.5c0.2,0,0.5,0.5,0.7,0.8c2.6,3.7,6.8,6,8.3,10.7c0.2,0.6,0.8,1.2,1.3,1.4
		c1.8,0.8,2.1,4.4,4.9,3.1c0,0,0.1,0.1,0.2,0.2c0.8,2.6,2.7,1.6,4.3,1.5c0,0,0,0,0,0c1.2-0.1,2.1,0.9,1.7,2c-1,2.6-1.5,5.4-2,8.2
		c-0.4,2.2-0.6,3,1.1,5.6c0.3,0.5,0.6,1.3,0.8,1.9c0.3,1,2.1,2.3-0.4,3.3c-1.5,0.6-3.1,2-1.3,4.3c0.5,0.6,0.2,0.9-0.2,1.6
		c-0.7,1.4,0.7,2.8,2.3,3.2c1.7,0.5,1,2.4,2.3,3.5c0.6,0.4,1.3,0.7,1.7,0.1c1.7-2.3,3.3-0.8,4.9-3.4c0.3-0.6,1-0.6,1.5-0.2
		c0.6,0.6,1.2,1.1,1.6,1.9c1.4,3.5,2,7.2,4,10.5c1.3,2.1,6.4,3,3.1,7.5c-0.1,0.1,0.1,0.4,0.2,0.5c1.1,2,2.8,3.5,4.8,3.7
		c3.3,0.4,4,1.2,4.4,4.9c0.3,3.6,2.3,6.2,5.1,8c0.9,0.6,2,0.1,2.1-1c0.3-3.1,2.2-2.5,3.9-2.3c1.4,0.2,2.8,0.5,4.2,0.8
		c0.7,0.1,1.7,0.2,1.9-0.7c0.5-3.6,2.5-2.3,4.4-1.9c0.9,0.2,1.8,0.3,2.7,0.2c3.6-0.4,7.2-0.4,10.8-0.1c1.6,0.1,2.5-0.1,1.4-2.2
		c-0.7-1.4,0.5-2.6,1.4-3.3c1.3-1,1.5,0.4,2.1,1.3c1.2,1.8,2.6,3.4,3.9,5.1c0.6,0.8,1.5,1.2,2.4,0.8c0.9-0.4,0.5-1.4,0.5-2.1
		c0-3.3,3.8-4.5,3.5-7.8c-0.2-2.6-1-5.9,1.4-5.9c41.1,0,80.2,0.5,121.3,0.4c9.1,0,18.3,0,27.4,0c2.1,0,3-0.6,2.9-3.2
		C278.2,146.2,278.3,136.7,278.3,127.3z M266.3,151.3c-8.5-0.1-17,0-25.5,0c-38.3,0-76.6,0.1-114.8,0c-2.2,0-2.9,0.5-2.7,2.8
		c0.2,2.9,0.1,5.9,0.1,8.8c0,0.6,0.4,1.5-0.4,1.8c-0.9,0.4-1.6,0-2.2-0.7c-1.2-1.5-2.5-2.9-3.6-4.4c-0.5-0.8-0.7-2-1.9-1.1
		c-0.9,0.7-2,1.7-1.3,2.9c1,1.9,0.2,2-1.3,1.9c-3.4-0.2-6.7-0.3-10.1,0.1c-0.8,0.1-1.7,0-2.5-0.1c-1.7-0.3-3.6-1.4-4.1,1.7
		c-0.1,0.8-1.1,0.7-1.7,0.6c-1.3-0.2-2.6-0.5-3.9-0.7c-1.6-0.2-3.4-0.7-3.6,2c-0.1,1-1.1,1.4-2,0.9c-2.6-1.6-4.5-3.8-4.8-7
		c-0.3-3.3-1-3.9-4-4.3c-1.9-0.2-3.5-1.5-4.5-3.3c-0.1-0.1-0.2-0.4-0.1-0.5c3-4-1.7-4.8-2.9-6.6c-1.9-2.9-2.5-6.2-3.8-9.2
		c-0.4-0.9-1.1-1.3-1.7-1.9c-0.5-0.5-1.4-0.5-1.9,0c-1.6,1.7-4.1,2.3-5.6,4.2c-0.4,0.5-1.1,0.3-1.6-0.1c-1.2-0.9-2.3-1.6-3.9-2
		c-1.5-0.4-1-2.4-0.4-3.6c0.3-0.6,0.6-0.8,0.2-1.4c-1.7-2-0.2-3.3,1.2-3.8c2.3-0.8,0.7-2,0.4-2.9c-0.2-0.6-0.5-1.3-0.8-1.7
		c-1.5-2.3,0.5-4,0.8-5.9c0.4-2.4,0.9-4.8,1.8-7.1c0.4-1-0.5-2-1.5-1.8c0,0,0,0,0,0c-1.5,0.1-3.2,1-4-1.3c0-0.1-0.1-0.2-0.2-0.2
		c-2.7,1.1-2.9-2.2-4.7-2.8c-0.5-0.2-1-0.8-1.2-1.3c-1.5-4-5.3-6.1-7.7-9.3c-0.2-0.3-0.4-0.7-0.7-0.7c-3.3,0-4.9-3.4-7.9-3.9
		c-0.8-0.1-1.8-0.3-1.1-1.7c1-2,1-4.3,0.1-6.2c-0.8-1.8-2.1-3.5-3.6-4.7c-2.2-1.6-2.6-3.5-2.6-6.2c0.1-7.3,0-14.6-0.1-22
		c0-1.2,0.4-1.8,1.5-1.9c0.8-0.1,1.7-0.1,2.5-0.1c81.2,0,162.5,0,243.7,0c3.9,0,3.5-0.6,3.5,3.9c0.1,24.4,0,48.8,0,73.2
		c0,8.3-0.1,16.5,0,24.8C269.1,150.7,268.3,151.3,266.3,151.3z"/>
	<g>
		<path d="M80.5,55.4h1c2,0.4,3,1.2,3,2.4c0,0.4-0.4,0.8-1.1,1.2h-1.2c-0.6-0.7-1-1.1-1.2-1.1c-1.7,0.6-2.6,1.2-2.6,1.6
			c-1.7,3.4-2.6,8.1-2.6,14v2.3c0,4,0.5,8.8,1.5,14.4c0.6,4.1,1.4,6.8,2.4,8.1c1.1,1,2.1,1.6,2.8,1.6c0.9,0,2.1-1,3.6-3h0.8
			c0.5,0,0.9,0.3,1.2,1v0.4c0,1-1.1,2.3-3.2,3.7c-1,0.4-1.8,0.6-2.6,0.6h-0.2c-1.5-0.2-3-1-4.5-2.4c-1.6-1.4-3-6.7-4.2-15.9
			c-0.4-2-0.6-5.2-0.6-9.7V74c0.1-9.4,1.7-15.2,4.5-17.5C79,55.7,80,55.4,80.5,55.4z"/>
		<path d="M99.7,54.8c2.9,0,5.1,6.3,6.5,18.9c0.1,1.2,0.1,2.7,0.1,4.5v0.5c0,0.4,0,0.7-0.1,1.1c0.1,0.1,0.1,0.5,0.1,1.1v0.1
			c0,0.6,0,1-0.1,1.1c0.1,0.4,0.1,0.6,0.1,0.7c0,9.7-1.3,15.8-4,18.2c-1.1,0.5-1.8,0.7-2.3,0.7h-1c-3.5-0.9-5.6-5.3-6.4-13.3
			L92.3,83c0-12.9,1.5-21.8,4.6-26.9C97.9,55.3,98.8,54.8,99.7,54.8z M95.1,82.5c0,5,0.6,9.5,1.9,13.2c1,2.2,1.9,3.3,2.4,3.3h0.1
			c1.3,0,2.1-1.1,2.6-3.3c0.9-2.3,1.4-7.3,1.4-14.9v-2.7c0-5.3-0.9-11.3-2.6-18.2c-0.6-1.4-1-2.1-1.3-2.3c-0.5,0.2-0.8,0.5-0.9,0.9
			C96.3,63.9,95.1,71.9,95.1,82.5z"/>
		<path d="M113.8,54.3c1,0.3,4,7.6,8.9,21.8h-1.1c0-0.6,2.2-7.6,6.5-21h1.5l0.6,1.2l0,1.5c-0.2,8.1-0.4,14.9-0.4,20.5
			c0,2.2,0.4,10,1.2,23.7l-1.4,0.7c-1.1,0-2-7.6-2.5-22.8V64h1.1c-3,10-4.9,15.3-5.5,15.8c-1.4-0.1-4-6-8-17.8h1v-0.3l1.9,39.5
			l-1.3,0.7c-1.2,0-1.8-0.5-1.8-1.5c-0.7-23.6-1.5-38.8-2.3-45.4L113.8,54.3z"/>
		<path d="M138.7,53.8c4.5,0,7.6,2.1,9.2,6.3c0.3,0.9,0.5,2,0.5,3.3c0,5.7-0.9,12-2.8,18.8c-1,1.8-2.4,3.2-4.2,4.1
			c-0.7,0-1-0.1-1-0.3v0.1c0,1.2,0,2.2,0.1,3c-0.1,0.8-0.1,1.3-0.1,1.4c0.3,5.1,0.4,7.9,0.4,8.3c0.3,0,0.4,0.6,0.4,1.6v0.5
			c-0.3,1-0.8,1.6-1.4,1.8h-0.4c-0.4,0-0.9-0.4-1.3-1.1v-1.1v-0.8c-0.1-0.4-0.1-1.3-0.3-2.8c0-0.6,0-0.8,0.1-0.8l-0.4-5
			c0.1-0.9,0.1-1.6,0.1-2c-0.1-1.7-0.1-2.6-0.1-2.8c-0.3-0.2-0.5-0.6-0.5-1.1c0.2-0.8,0.3-1.2,0.4-1.2c-0.1-1.9-0.2-3.1-0.2-3.7
			l0.6-24c-0.1,0-0.2-0.3-0.2-1V55C137.7,54.6,138,54.2,138.7,53.8z M140.8,56.6l-0.6,23.7c0.1,1.9,0.1,3.1,0.1,3.6l-0.3-0.2
			c0.6,0,1.3-0.5,2.1-1.4c1.3-0.9,2.5-6.3,3.4-16.3c0.1-1.6,0.1-2.7,0.1-3.2c0-2.1-1.2-4.1-3.5-5.8
			C141.5,56.8,141.1,56.7,140.8,56.6z"/>
		<path d="M159.1,55.1h0.3c1.5,0.7,2.8,2.5,3.7,5.3c2.4,7.8,4.1,17.8,5.3,29.9c0.7,3.9,1.1,7.4,1.1,10.5c-0.3,0.7-1,1-2.2,1
			c-0.5-1-1.1-4.8-1.8-11.4c-0.2-0.7-0.6-3.5-1.2-8.5l-0.3,0c-4,0.4-6.1,0.7-6.1,0.8V88l-0.9,12.4c0.2,0.3,0.3,0.6,0.3,1
			c0,0.4-0.4,0.8-1.1,1.3c-1.4,0-2.2-0.7-2.2-2.2c0.7-9.6,1-15.3,1-17.2c-0.1-1.2-0.1-2.5-0.1-3.8c0-6.5,0.6-13.5,1.5-20.8
			C157,56.3,157.8,55.1,159.1,55.1z M159.7,58.6c-1.1,4.4-1.6,10.9-1.6,19.3c-0.1,0-0.1,0.9-0.1,2.6V80c2.1-0.6,4.1-0.9,6.2-0.9v0.5
			c0-2.7-1.4-9.2-4.2-19.5C159.4,58.9,159.3,58.4,159.7,58.6z"/>
		<path d="M185.8,55.6l0.7,1V57c0,0.3-0.4,0.8-1.1,1.3h-1.6c-1.9,0-3.2,0.7-3.8,2.2c-0.7,1.9-1,4-1,6.4c0,1.4,0.6,3.8,1.8,7.1
			c0.4,0.8,2.6,3.2,6.8,7.2c2.2,3.4,3.4,6.7,3.4,10c0,2.6-0.5,5.1-1.6,7.6c-0.6,1.3-2,2.4-4.2,3.3c-0.9,0.5-1.6,0.7-2.2,0.7
			c-0.8,0-1.4-0.4-1.7-1.1v-0.5c0-0.7,0.7-1.1,2-1.2c2.4-1,3.6-2,3.6-3c0.8-1.6,1.2-3.7,1.2-6.2c0-3.3-1.4-6.5-4.2-9.6
			c-2.3-1.9-4-3.7-5.2-5.4c-0.8-1-1.6-3.4-2.4-7.3c0-0.5,0-1.1-0.1-1.8c0-3,0.5-5.7,1.6-8C179.1,56.6,181.8,55.6,185.8,55.6z"/>
		<path d="M204.2,55.6l0.7,1V57c0,0.3-0.4,0.8-1.2,1.3h-1.6c-1.9,0-3.2,0.7-3.8,2.2c-0.7,1.9-1,4-1,6.4c0,1.4,0.6,3.8,1.8,7.1
			c0.4,0.8,2.6,3.2,6.8,7.2c2.2,3.4,3.4,6.7,3.4,10c0,2.6-0.5,5.1-1.6,7.6c-0.6,1.3-2,2.4-4.2,3.3c-0.9,0.5-1.6,0.7-2.2,0.7
			c-0.8,0-1.4-0.4-1.7-1.1v-0.5c0-0.7,0.7-1.1,2-1.2c2.4-1,3.6-2,3.6-3c0.8-1.6,1.2-3.7,1.2-6.2c0-3.3-1.4-6.5-4.2-9.6
			c-2.3-1.9-4-3.7-5.2-5.4c-0.8-1-1.6-3.4-2.4-7.3c0-0.5,0-1.1-0.1-1.8c0-3,0.5-5.7,1.6-8C197.4,56.6,200.1,55.6,204.2,55.6z"/>
		<path d="M217.6,55.3h0.5c1.1,0,1.7,2.6,1.7,7.9v1.8c0,1.8-0.3,6.4-0.8,13.7c0,0.3,0,0.6,0.1,1c-0.1,4.8-0.1,8.6-0.1,11.3v8.8
			c0,0.1,0.1,0.6,0.3,1.3c-0.2,1.1-0.6,1.7-1.3,1.7h-0.5c-0.9,0-1.3-1.4-1.3-4.3c0-15.7,0.3-26.6,0.8-32.5v-3.8c0-2.1-0.1-4-0.4-5.7
			C216.5,56.1,216.9,55.7,217.6,55.3z"/>
		<path d="M234.3,54.8c2.9,0,5.1,6.3,6.5,18.9c0.1,1.2,0.1,2.7,0.1,4.5v0.5c0,0.4,0,0.7-0.1,1.1c0.1,0.1,0.1,0.5,0.1,1.1v0.1
			c0,0.6,0,1-0.1,1.1c0.1,0.4,0.1,0.6,0.1,0.7c0,9.7-1.3,15.8-4,18.2c-1.1,0.5-1.8,0.7-2.3,0.7h-1c-3.5-0.9-5.6-5.3-6.4-13.3
			l-0.4-5.6c0-12.9,1.5-21.8,4.6-26.9C232.5,55.3,233.4,54.8,234.3,54.8z M229.7,82.5c0,5,0.6,9.5,1.9,13.2c1,2.2,1.9,3.3,2.4,3.3
			h0.1c1.3,0,2.1-1.1,2.6-3.3c0.9-2.3,1.4-7.3,1.4-14.9v-2.7c0-5.3-0.9-11.3-2.6-18.2c-0.6-1.4-1-2.1-1.3-2.3
			c-0.5,0.2-0.8,0.5-0.9,0.9C230.9,63.9,229.7,71.9,229.7,82.5z"/>
		<path d="M249.1,54.5c0.9,0,3.1,6.4,6.6,19.1c0.5,2.9,2.5,10,6,21.4h-1.1v-0.5c-0.5-11-0.7-17.2-0.7-18.5c0-0.4,0.1-1.8,0.2-4.1
			c0-0.2,0-0.8,0-1.6c0.2-1.8,0.3-3.2,0.3-4.2v-9.7c0.1-1,0.7-1.4,1.7-1.4l1.3,0.7C263.1,61,263,65,263,67.6v3.8
			c0,7.9,0.2,18.2,0.7,30.9l-1.3,0.7c-1.1,0-4.4-10.2-10.1-30.6L249,60.2l1.2,2l0.1-2c0.1,1.9,0.2,3.4,0.2,4.5l0,1.2
			c-0.2,5-0.3,8.5-0.3,10.6c0,10.1,0.4,18.7,1.2,25.7h-1.6c-1,0-1.5-0.5-1.5-1.4c-0.5-7.9-0.7-15-0.7-21.2V56
			C247.8,55,248.3,54.5,249.1,54.5z"/>
	</g>
	<g>
		<path d="M166.4,109.1c3.3,0,5.5,1.5,6.7,4.4c0.2,0.7,0.4,1.5,0.4,2.4c0,4.3-0.8,9-2.3,14.1c-0.7,1.2-1.7,2.1-3,2.8
			c-0.8,0.1-1.3,0.2-1.3,0.3v0.1c0,0.9,0,1.7,0.1,2.3c-0.1,0.6-0.1,0.9-0.1,1c0.2,3.9,0.3,6.1,0.3,6.7c0.2,0,0.3,0.3,0.3,0.8v0.3
			c-0.2,0.5-0.4,0.8-0.6,0.9h-0.2c-0.1,0-0.2-0.1-0.4-0.4V144c0-0.1,0-0.1,0.1-0.1c-0.1-0.7-0.2-1.6-0.3-2.7c0-0.1,0-0.1,0.1-0.1
			l-0.3-4.3c0.1-0.7,0.1-1.2,0.1-1.5c-0.1-1.2-0.1-2-0.1-2.4c-0.3-0.1-0.4-0.3-0.4-0.5c0.1-0.3,0.2-0.4,0.4-0.4
			c-0.1-1.8-0.2-2.9-0.2-3.3l0.5-18.7c-0.1,0-0.2-0.1-0.2-0.2v-0.3C166,109.4,166.1,109.3,166.4,109.1z M167.2,110.1l-0.5,18.6
			c0.1,1.4,0.1,2.4,0.1,3l0.2,0.1c0.8,0,1.6-0.4,2.4-1.2c1.2-0.8,2.2-5,2.9-12.6c0.1-1.2,0.1-2.1,0.1-2.5c0-1.8-1.1-3.4-3.2-4.8
			C168.7,110.4,168,110.3,167.2,110.1z"/>
		<path d="M179.7,107.3h0.2c0.2,0.2,0.8,0.4,1.9,0.6c1.3,0.5,2.4,1.5,3.3,2.9c1.2,2.8,1.8,4.9,1.8,6.3v1c0,4.5-1.3,7.7-4,9.7
			c3.1,0.7,4.9,4.3,5.4,10.7v3.9c0,0.6,0,1.4,0.1,2.6l-0.3,0.2h-0.3l-0.4-0.3c-0.1-1.4-0.1-2.4-0.1-3.1V138c0-2.6-0.8-5.2-2.4-7.9
			c-1.1-1-2.1-1.5-2.9-1.5h-0.1c0.1,1.5,0.1,2.6,0.1,3.3v3.9c0.1,3.4,0.2,5.3,0.2,5.7v0.2c-0.1,0.3-0.4,0.4-0.6,0.4
			c-0.1,0-0.3-0.1-0.5-0.4l0.1-0.7c-0.1-2.9-0.2-4.8-0.2-5.7v-6.2c-0.3,0-0.5-0.1-0.6-0.4v-0.3c0.1-0.3,0.3-0.4,0.5-0.4
			c-0.4-9.4-0.8-16.2-1.4-20.4L179.7,107.3z M180.6,108.7c0.4,5,0.8,11.2,1.2,18.6c2.7-1.8,4.1-4.7,4.1-8.7v-1.4
			c0-1.8-0.8-4.1-2.3-6.9c-1.2-1-2-1.5-2.6-1.5H180.6z"/>
		<path d="M199.7,109.9c2,0,3.6,4.6,4.7,13.9c0.1,0.9,0.1,2,0.1,3.4v0.4c0,0.2,0,0.5-0.1,0.9c0.1,0.1,0.1,0.3,0.1,0.7v0.1
			c0,0.4,0,0.6-0.1,0.7c0.1,0.4,0.1,0.6,0.1,0.6c0,7.2-1,11.7-3,13.3c-0.7,0.3-1.2,0.4-1.5,0.4h-0.7c-2.5-0.6-4.1-3.8-4.7-9.5
			l-0.3-4.2c0-9.6,1.2-16.3,3.7-20C198.6,110.2,199.2,109.9,199.7,109.9z M195.3,130.3c0,3.9,0.5,7.3,1.6,10.2
			c1,1.9,1.9,2.9,2.6,2.9h0.1c1.4,0,2.3-1,2.7-2.9c0.8-1.8,1.2-5.6,1.2-11.4v-2.1c0-4-0.7-8.6-2.2-13.9c-0.5-1.1-1.1-1.9-1.6-2.3
			c-0.8,0.3-1.3,0.7-1.5,1.1C196.3,116.1,195.3,122.2,195.3,130.3z"/>
		<path d="M215.5,111.2c0.2,0,0.4,0.1,0.6,0.2c0,0,0,0.5-0.1,1.3c0.2,2.5,0.3,8.6,0.3,18.1v0.7c0,0.7,0.1,2.9,0.2,6.6
			c-0.3,4.7-1.3,7.1-3.2,7.1H213c-1.9-0.5-2.8-1-2.8-1.7c-0.4-0.2-0.6-1.8-0.6-4.8c0.2-0.2,0.4-0.3,0.5-0.3c0.4,0.1,0.5,0.3,0.5,0.7
			c0,3.2,0.5,4.8,1.6,4.8c0.4,0.2,0.7,0.3,1.1,0.3h0.1c1.2,0,1.9-1.9,2.2-5.8v-0.5c-0.1-3.6-0.2-5.7-0.2-6.5V130
			c0-3.8,0-8.7-0.1-14.7c-0.1-0.9-0.2-1.9-0.2-3v-0.7C215,111.6,215.2,111.4,215.5,111.2z"/>
		<path d="M228.4,109.7l0.2,0.1c0.1,0,0.1,0,0.1-0.1c2.2,0.2,3.4,0.4,3.4,0.7v0.1c-0.1,0.3-0.3,0.5-0.5,0.5l-3.1-0.3
			c-0.2,0-0.9,0-2.1,0.1l0.1,1.2c0,1.1,0.2,5.6,0.5,13.5h0.7c0.6,0,1,0,1.4-0.1c1.6,0.1,2.7,0.2,3.5,0.2l0.3,0.4v0.3
			c0,0.2-0.1,0.3-0.4,0.3c-0.6,0-1.6-0.1-3.1-0.2c-0.9,0.1-1.8,0.1-2.4,0.1v0.4c0,4.8,0.2,10.4,0.7,16.7c0.1,0,0.1,0,0.1,0.1
			c2.6-0.1,4.2-0.2,4.7-0.2c0.3,0.1,0.5,0.3,0.6,0.5v0.1c0,0.1-0.1,0.2-0.4,0.4c-2.7,0.1-4.3,0.1-4.8,0.2c-0.8,0-1.3-0.4-1.3-1.3
			c-0.5-6.5-0.7-12-0.7-16.3V124c-0.4-6-0.5-10.1-0.5-12.2c-0.2-1-0.3-1.6-0.3-1.6l0.4-0.3h1.2C227.1,109.8,227.7,109.8,228.4,109.7
			z"/>
		<path d="M244.8,110.3h0.7c1.3,0.2,1.9,0.7,1.9,1.3c0,0.1-0.1,0.2-0.4,0.4h-0.4c-0.5-0.5-0.9-0.8-1.5-0.8c-1.8,0.6-2.6,1.1-2.6,1.6
			c-1.4,2.6-2.1,6.2-2.1,10.7v1.7c0,3,0.4,6.7,1.3,11c0.5,3.1,1.2,5.2,2.1,6.4c1.1,0.9,2,1.4,2.8,1.4c1,0,2.2-0.8,3.4-2.3h0.3
			c0.1,0,0.2,0.1,0.3,0.3v0.2c0,0.6-0.8,1.4-2.3,2.4c-0.6,0.3-1.2,0.4-1.8,0.4h-0.1c-1-0.1-2.1-0.7-3.3-1.6c-1.2-1-2.3-4.9-3.3-11.7
			c-0.4-1.5-0.5-3.9-0.5-7.3v-0.6c0.1-6.9,1.3-11.2,3.5-12.8C243.9,110.6,244.5,110.3,244.8,110.3z"/>
		<path d="M266,111.7l0.3,0.4v0.3c0,0.3-1,0.4-2.9,0.4h-2.9c-0.1,0-0.2,0.1-0.3,0.4l0.2,4.7c-0.1,0.4-0.1,0.7-0.1,0.7
			c0.6,10.3,0.9,17.8,0.9,22.2c0.1,0.1,0.1,0.2,0.1,0.3c-0.1,0.1-0.1,0.2-0.1,0.3l0.1,0.6c-0.1,0.2-0.2,0.4-0.3,0.4h-0.4
			c-0.1,0-0.2-0.1-0.4-0.4c0-0.1,0-0.4,0.1-1c0-1.5-0.3-8.9-0.9-22.2c0-2.2-0.1-4.1-0.2-5.9l-0.2-0.1h-0.3l-3.4,0.3
			c-0.2-0.2-0.3-0.5-0.3-0.8c0-0.1,0.1-0.2,0.4-0.4c0.5,0.1,0.8,0.2,0.8,0.2c1.4-0.1,2.3-0.2,2.8-0.2h4.3
			C264.1,111.9,265.1,111.8,266,111.7z"/>
	</g>
	<g>
		<path d="M38.1,61.2l0.3,0.3v0.2c0,0.3-0.8,0.4-2.4,0.4h-2.4c-0.1,0-0.2,0.1-0.3,0.3l0.2,4c-0.1,0.4-0.1,0.6-0.1,0.6
			c0.5,8.9,0.8,15.3,0.8,19.2c0.1,0.1,0.1,0.2,0.1,0.2c-0.1,0.1-0.1,0.2-0.1,0.2l0.1,0.5c-0.1,0.2-0.2,0.3-0.3,0.3h-0.3
			c-0.1,0-0.2-0.1-0.3-0.3c0-0.1,0-0.4,0.1-0.8c0-1.3-0.3-7.6-0.8-19.1c0-1.9-0.1-3.6-0.2-5.1l-0.2-0.1H32l-2.8,0.2
			c-0.2-0.2-0.3-0.4-0.3-0.7c0-0.1,0.1-0.2,0.3-0.3c0.4,0.1,0.6,0.2,0.7,0.2c1.1-0.1,1.9-0.2,2.3-0.2h3.6
			C36.6,61.4,37.4,61.3,38.1,61.2z"/>
		<path d="M49.5,57.3h0.2c0.2,0.1,0.3,0.3,0.3,0.4c0,2.8-0.1,4.9-0.2,6.5l0.2,9.2c0.1,0.2,0.2,0.3,0.2,0.4c-0.1,0.2-0.1,0.3-0.2,0.3
			c0.1,2.8,0.2,7.6,0.3,14.4c-0.1,0.3-0.1,0.9-0.1,1.8L50,90.5h-0.3l-0.3-0.3c0-0.6,0-1.1,0.1-1.5c-0.1-8.1-0.1-12.9-0.3-14.5
			c-2.7,0.1-4.3,0.1-4.6,0.3c0.1,1.1,0.2,2.2,0.2,3.3c0,2.3,0,4.4-0.1,6.2c0.1,1,0.1,2.9,0.1,5.8c-0.2,0.1-0.4,0.2-0.5,0.2
			c-0.1,0-0.2-0.1-0.3-0.4v-0.8c0-2.4,0-4-0.1-4.9c0.1-1.4,0.1-3.2,0.1-5.3v-1.3c-0.2-2.9-0.3-4.9-0.3-6c0.2-6.6,0.3-10.8,0.3-12.6
			c-0.1-0.2-0.1-0.4-0.1-0.6l0.3-0.3h0.2c0.3,0.2,0.4,0.4,0.4,0.7c0,1.1-0.1,5.5-0.3,13.3v1.6l0.1,0.2c0.4-0.1,1.9-0.2,4.6-0.3
			c-0.1-2.1-0.1-3.7-0.1-4.6v-4.1c0-0.1,0-0.3-0.1-0.4l0.1-0.2c0.1-2.8,0.1-5,0.1-6.5L49.5,57.3z"/>
		<path d="M59.8,59.5l0.2,0.1c0.1,0,0.1,0,0.1-0.1c1.9,0.2,2.8,0.4,2.8,0.6v0.1c-0.1,0.3-0.2,0.4-0.4,0.4l-2.5-0.3
			c-0.2,0-0.7,0-1.7,0.1l0.1,1.1c0,1,0.1,4.8,0.4,11.7h0.6c0.5,0,0.9,0,1.1-0.1c1.3,0.1,2.3,0.2,2.9,0.2l0.3,0.4v0.3
			c0,0.2-0.1,0.3-0.3,0.3c-0.5,0-1.3-0.1-2.5-0.2c-0.8,0.1-1.4,0.1-2,0.1v0.4c0,4.2,0.2,9,0.6,14.4c0.1,0,0.1,0,0.1,0.1
			c2.2-0.1,3.5-0.2,3.9-0.2c0.2,0.1,0.4,0.2,0.5,0.4v0.1c0,0.1-0.1,0.2-0.3,0.4c-2.2,0.1-3.5,0.1-4,0.2c-0.7,0-1-0.4-1-1.1
			c-0.4-5.6-0.6-10.3-0.6-14.1v-2.8c-0.3-5.2-0.4-8.7-0.4-10.5c-0.2-0.9-0.3-1.4-0.3-1.4l0.3-0.3h1C58.7,59.6,59.2,59.6,59.8,59.5z"
			/>
	</g>
	<path class="st0" d="M101,110c-0.7-1-6,1-10.5,3.9c-4.3,2.7-10.2,6.4-12,13.3c-0.5,2.1-2,7.6,1.5,11.2c3.2,3.3,9.3,3.6,12.7,1.2
		c4.3-3,4.2-5.9,4.1-9.7c-0.1-3.6-1-4.9-0.5-7.5C97.3,116.7,101.7,111,101,110z"/>
	<path class="st1" d="M84.7,126.5c-1.2,0.4-0.9,5.8,0.5,10.9c1.3,4.8,3.1,11.3,9.4,15.2c1.9,1.1,6.8,4.2,11.5,2.1
		c4.2-2,6.4-7.4,5.1-11.3c-1.6-4.9-4.5-5.7-8.3-6.8c-3.6-1-5.1-0.6-7.6-1.9C90.2,132,85.8,126.1,84.7,126.5z"/>
	<path class="st2" d="M95.8,146.6c0,1.2,5.4,2.6,10.9,2.9c5.1,0.3,12.1,0.6,17.8-3.9c1.7-1.4,6.3-5,5.6-9.9
		c-0.6-4.5-5.3-8.2-9.5-8.2c-5.3,0-7,2.4-9.2,5.6c-2.1,3-2.2,4.5-4.2,6.4C103,143.3,95.9,145.4,95.8,146.6z"/>
	<path class="st3" d="M119.1,142.5c1.2,0.4,4.2-4.2,6.2-9.1c1.8-4.6,4.4-11,1.6-17.6c-0.8-2-3-7.3-8-8.2c-4.6-0.8-9.7,2.4-11,6.2
		c-1.7,4.8,0.2,7.1,2.6,10.2c2.3,2.9,3.8,3.4,5,5.8C118,134.9,117.9,142.2,119.1,142.5z"/>
	<path class="st4" d="M122.3,119.9c0.7-1-2.8-5.2-7.1-8.5c-4-3.1-9.4-7.4-16.8-6.9c-2.2,0.1-8.1,0.5-10.6,4.9c-2.2,4-0.7,9.6,2.7,12
		c4.2,3,7.1,2,10.8,0.7c3.5-1.2,4.5-2.4,7.2-2.8C114.5,118.6,121.5,120.9,122.3,119.9z"/>
	<path class="st0" d="M88.9,123.2c0.4,0.5,0.8,1,1,1.6c2,0.4,4.4,0.3,6.3,0.3c-0.1-0.8-0.1-1.7,0.1-2.7c1-5.6,5.5-11.4,4.8-12.3
		c-0.7-1-6,1-10.5,3.9c-1.3,0.8-2.7,1.7-4.1,2.7C86.8,118.9,87.3,121.3,88.9,123.2z"/>
</g>
</svg>
