<?xml version="1.0" encoding="utf-8"?>
<!-- Generator: Adobe Illustrator 22.1.0, SVG Export Plug-In . SVG Version: 6.00 Build 0)  -->
<svg version="1.1" id="Layer_1" xmlns="http://www.w3.org/2000/svg" xmlns:xlink="http://www.w3.org/1999/xlink" x="0px" y="0px"
	 viewBox="0 0 288 216" style="enable-background:new 0 0 288 216;" xml:space="preserve">
<style type="text/css">
	.st0{fill:#664DA0;}
	.st1{fill:#7E69AF;}
	.st2{fill:#9786BF;}
	.st3{fill:#B4A8D2;}
	.st4{fill:#4D3F68;}
</style>
<g>
	<path class="st0" d="M437,53.8c-2.2-3-18,3-31.8,11.7c-13,8.2-30.8,19.3-36.3,40.2c-1.7,6.2-6.1,22.9,4.6,33.8
		c9.8,10,28,10.8,38.3,3.6c12.9-8.9,12.7-17.8,12.3-29.4c-0.3-10.9-3-14.8-1.5-22.7C425.7,74.2,439.1,56.7,437,53.8z"/>
	<path class="st1" d="M387.7,103.6c-3.6,1.1-2.6,17.4,1.7,32.9c4,14.5,9.5,34.3,28.3,45.8c5.6,3.4,20.7,12.7,34.7,6.2
		c12.8-5.9,19.3-22.4,15.4-34.1c-4.8-14.6-13.6-17.1-25.2-20.4c-10.9-3.1-15.5-1.8-22.8-5.6C404.2,120.3,391.2,102.5,387.7,103.6z"
		/>
	<path class="st2" d="M421.4,164.3c0,3.6,16.3,7.8,32.9,8.6c15.5,0.8,36.6,1.8,53.8-11.9c5.1-4.1,18.9-15.1,16.8-30
		c-1.9-13.6-16.1-24.6-28.8-24.7c-15.9-0.1-21,7.2-27.8,16.8c-6.4,9-6.5,13.7-12.6,19.3C443,154.2,421.5,160.7,421.4,164.3z"/>
	<path class="st3" d="M491.6,152c3.6,1.2,12.7-12.6,18.7-27.6c5.5-14,13.1-33.1,4.9-53.2c-2.4-6-9-22-24.3-24.8
		c-14-2.5-29.2,7.2-33.2,18.8c-5,14.6,0.6,21.6,7.9,30.8c6.9,8.7,11.4,10.2,15.1,17.5C488.3,129.1,488.1,150.9,491.6,152z"/>
	<path class="st4" d="M501.2,83.8c2.2-2.9-8.5-15.6-21.3-25.7c-12-9.4-28.5-22.3-50.8-21c-6.6,0.4-24.4,1.5-31.9,14.7
		c-6.8,12.1-2,29.1,8.3,36.4c12.8,9.1,21.4,6.1,32.8,2.2c10.7-3.7,13.6-7.4,21.9-8.4C477.7,79.7,499,86.6,501.2,83.8z"/>
	<path class="st0" d="M394.2,74.4c0.3,11.8,9.8,16.4,19.9,19c2,0.5,5.1,1.5,8,2.9c0-1.6,0.1-3.4,0.4-5.4
		c3.2-16.8,16.6-34.3,14.5-37.2c-2.2-3-18,3-31.8,11.7c-3.5,2.2-7.3,4.6-11.2,7.4C394.1,73.4,394.2,73.9,394.2,74.4z"/>
</g>
</svg>
