<?xml version="1.0" encoding="utf-8"?>
<!-- Generator: Adobe Illustrator 22.1.0, SVG Export Plug-In . SVG Version: 6.00 Build 0)  -->
<svg version="1.1" id="Layer_1" xmlns="http://www.w3.org/2000/svg" xmlns:xlink="http://www.w3.org/1999/xlink" x="0px" y="0px"
	 viewBox="0 0 288 216" style="enable-background:new 0 0 288 216;" xml:space="preserve">
<style type="text/css">
	.st0{fill:#ECE8F4;stroke:#ECE8F4;stroke-miterlimit:10;}
	.st1{fill:#FFFFFF;stroke:#020202;stroke-width:0.75;stroke-miterlimit:10;}
	.st2{fill:#664DA0;}
	.st3{fill:#7E69AF;}
	.st4{fill:#9786BF;}
	.st5{fill:#B4A8D2;}
	.st6{fill:#4D3F68;}
</style>
<g>
	<g id="ny1b3G_1_">
		<g>
			<path class="st0" d="M-35.7,152c0,2.8-0.7,3.5-3.3,3.5c-37.9-0.1-75.7-0.1-113.6-0.1c-7.5,0-31,0-31,0l0,0c0,0,0,1.9,0,2.5
				c0,1.2-0.1,3.4-0.1,7.5c-4.4,1-6.1,0.3-6.8-0.6c-0.5-0.7-0.8-1.9-1.9-2.1c-0.3-0.1-0.7-0.1-1.3,0.2c-1.7,0.8-2.6,2.3-2.6,4.3
				c0,0.3,0.1,0.5,0.1,0.6c-3.6,0.6-7.1-0.3-10.7,0.5c-1,0.3-2.2-0.1-3.3-0.4c-1.8-0.5-3.5-0.9-3.9,1.9c-0.2,1.1-1,0.8-1.7,0.7
				c-1.4-0.2-2.7-0.5-4.1-0.7c-2.3-0.4-4.2,0.1-4.3,3.4c-3.1-1.7-4.7-4.1-4.8-7.8c-0.1-2.8-2.1-4.5-4.7-4.5c-2.4,0-3.8-2-3.1-4.4
				c0.3-1.2,0.1-2.4-0.9-3c-6.5-4.1-5.7-11.8-7-13.4c-0.5-0.6-1.4-1.7-2.7-1.8c-0.3,0-1,0-1.6,0.1c-0.2,0-0.6,0.1-1.2,0.4
				c-1.6,0.6-1.9,1.1-3.1,1.3c-0.2,0-0.4,0.1-1,0.2c-0.5,0.1-1.2,0.2-1.8,0.2c0,0-2,0.2-4-0.4c0,0-0.1,0-0.2-0.1
				c-1.2-1.4,0.9-2.4,0.8-3.6c0-0.3-0.2-0.5-0.3-0.7c-1.1-1.8-0.5-5.1-0.1-7.1c0.4-2.2,0.7-2.2,0.8-3.7c0.1-2-0.4-2.3-0.3-3.8
				c0-3.2,2.3-5.4,3.7-9.9c0.1-0.3,0.4-1.3,0-1.5c-0.3-0.2-0.8,0.4-1.9,0.6c-1.1,0.1-1.1-0.4-2.5-0.4c-0.9,0-1.3,0.2-1.7-0.1
				c-0.3-0.2-0.5-0.5-0.6-1c-0.1-0.7-0.6-1.3-1.3-1c-1.3,0.6-1.8-1-2.1-1c-3.5-0.7-3-5.1-5.7-6.8c-1.9-1.2-3.7-3.7-5.3-5.9
				c-0.3-0.4-0.7-1.1-1.1-1.1c-3.4-0.1-5.1-3.7-8.5-4.3c0.9-0.8,2.4-1.4,0.8-2.7c-1.4-1.1,0.7-2,0-3.4c-1.6-2.9-3.3-5.6-5.6-7.8
				c-1.1-1.1-1.7-2-1.7-3.7c0.1-8,0.1-15.9,0-23.9c0-1.7,0.5-2.1,1.9-2c1.1,0.1,2.2,0,3.4,0h247c4.8,0,4.8,0,4.8,5.1
				C-35.7,84.2-35.8,118.1-35.7,152z"/>
		</g>
	</g>
	<path class="st1" d="M-29.7,127.3c0-27.8,0-55.6,0-83.4c0-5.2,0.4-4.4-3.7-4.4c-87.2,0-174.5,0-261.7,0c-0.9,0-1.8,0-2.7,0.1
		c-1.2,0.1-1.6,0.8-1.6,2.1c0.1,8.4,0.2,16.7,0.1,25.1c0,3,0.4,5.1,2.8,7c1.6,1.3,3,3.3,3.9,5.3c0.9,2.2,1,4.8-0.1,7.1
		c-0.7,1.5,0.4,1.8,1.2,1.9c3.2,0.6,5,4.5,8.5,4.5c0.2,0,0.5,0.5,0.7,0.8c2.6,3.7,6.8,6,8.3,10.7c0.2,0.6,0.8,1.2,1.3,1.4
		c1.8,0.8,2.1,4.4,4.9,3.1c0,0,0.1,0.1,0.2,0.2c0.8,2.6,2.7,1.6,4.3,1.5c0,0,0,0,0,0c1.2-0.1,2.1,0.9,1.7,2c-1,2.6-1.5,5.4-2,8.2
		c-0.4,2.2-0.6,3,1.1,5.6c0.3,0.5,0.6,1.3,0.8,1.9c0.3,1,2.1,2.3-0.4,3.3c-1.5,0.6-3.1,2-1.3,4.3c0.5,0.6,0.2,0.9-0.2,1.6
		c-0.7,1.4,0.7,2.8,2.3,3.2c1.7,0.5,1,2.4,2.3,3.5c0.6,0.4,1.3,0.7,1.7,0.1c1.7-2.3,3.3-0.8,4.9-3.4c0.3-0.6,1-0.6,1.5-0.2
		c0.6,0.6,1.2,1.1,1.6,1.9c1.4,3.5,2,7.2,4,10.5c1.3,2.1,6.4,3,3.1,7.5c-0.1,0.1,0.1,0.4,0.2,0.5c1.1,2,2.8,3.5,4.8,3.7
		c3.3,0.4,4,1.2,4.4,4.9c0.3,3.6,2.3,6.2,5.1,8c0.9,0.6,2,0.1,2.1-1c0.3-3.1,2.2-2.5,3.9-2.3c1.4,0.2,2.8,0.5,4.2,0.8
		c0.7,0.1,1.7,0.2,1.9-0.7c0.5-3.6,2.5-2.3,4.4-1.9c0.9,0.2,1.8,0.3,2.7,0.2c3.6-0.4,7.2-0.4,10.8-0.1c1.6,0.1,2.5-0.1,1.4-2.2
		c-0.7-1.4,0.5-2.6,1.4-3.3c1.3-1,1.5,0.4,2.1,1.3c1.2,1.8,2.6,3.4,3.9,5.1c0.6,0.8,1.5,1.2,2.4,0.8c0.9-0.4,0.5-1.4,0.5-2.1
		c0-3.3,3.8-4.5,3.5-7.8c-0.2-2.6-1-5.9,1.4-5.9c41.1,0,80.2,0.5,121.3,0.4c9.1,0,18.3,0,27.4,0c2.1,0,3-0.6,2.9-3.2
		C-29.8,146.2-29.7,136.7-29.7,127.3z M-41.7,151.3c-8.5-0.1-17,0-25.5,0c-38.3,0-76.6,0.1-114.8,0c-2.2,0-2.9,0.5-2.7,2.8
		c0.2,2.9,0.1,5.9,0.1,8.8c0,0.6,0.4,1.5-0.4,1.8c-0.9,0.4-1.6,0-2.2-0.7c-1.2-1.5-2.5-2.9-3.6-4.4c-0.5-0.8-0.7-2-1.9-1.1
		c-0.9,0.7-2,1.7-1.3,2.9c1,1.9,0.2,2-1.3,1.9c-3.4-0.2-6.7-0.3-10.1,0.1c-0.8,0.1-1.7,0-2.5-0.1c-1.7-0.3-3.6-1.4-4.1,1.7
		c-0.1,0.8-1.1,0.7-1.7,0.6c-1.3-0.2-2.6-0.5-3.9-0.7c-1.6-0.2-3.4-0.7-3.6,2c-0.1,1-1.1,1.4-2,0.9c-2.6-1.6-4.5-3.8-4.8-7
		c-0.3-3.3-1-3.9-4-4.3c-1.9-0.2-3.5-1.5-4.5-3.3c-0.1-0.1-0.2-0.4-0.1-0.5c3-4-1.7-4.8-2.9-6.6c-1.9-2.9-2.5-6.2-3.8-9.2
		c-0.4-0.9-1.1-1.3-1.7-1.9c-0.5-0.5-1.4-0.5-1.9,0c-1.6,1.7-4.1,2.3-5.6,4.2c-0.4,0.5-1.1,0.3-1.6-0.1c-1.2-0.9-2.3-1.6-3.9-2
		c-1.5-0.4-1-2.4-0.4-3.6c0.3-0.6,0.6-0.8,0.2-1.4c-1.7-2-0.2-3.3,1.2-3.8c2.3-0.8,0.7-2,0.4-2.9c-0.2-0.6-0.5-1.3-0.8-1.7
		c-1.5-2.3,0.5-4,0.8-5.9c0.4-2.4,0.9-4.8,1.8-7.1c0.4-1-0.5-2-1.5-1.8c0,0,0,0,0,0c-1.5,0.1-3.2,1-4-1.3c0-0.1-0.1-0.2-0.2-0.2
		c-2.7,1.1-2.9-2.2-4.7-2.8c-0.5-0.2-1-0.8-1.2-1.3c-1.5-4-5.3-6.1-7.7-9.3c-0.2-0.3-0.4-0.7-0.7-0.7c-3.3,0-4.9-3.4-7.9-3.9
		c-0.8-0.1-1.8-0.3-1.1-1.7c1-2,1-4.3,0.1-6.2c-0.8-1.8-2.1-3.5-3.6-4.7c-2.2-1.6-2.6-3.5-2.6-6.2c0.1-7.3,0-14.6-0.1-22
		c0-1.2,0.4-1.8,1.5-1.9c0.8-0.1,1.7-0.1,2.5-0.1c81.2,0,162.5,0,243.7,0c3.9,0,3.5-0.6,3.5,3.9c0.1,24.4,0,48.8,0,73.2
		c0,8.3-0.1,16.5,0,24.8C-38.9,150.7-39.7,151.3-41.7,151.3z"/>
	<g>
		<path d="M-227.5,55.4h1c2,0.4,3,1.2,3,2.4c0,0.4-0.4,0.8-1.1,1.2h-1.2c-0.6-0.7-1-1.1-1.2-1.1c-1.7,0.6-2.6,1.2-2.6,1.6
			c-1.7,3.4-2.6,8.1-2.6,14v2.3c0,4,0.5,8.8,1.5,14.4c0.6,4.1,1.4,6.8,2.4,8.1c1.1,1,2.1,1.6,2.8,1.6c0.9,0,2.1-1,3.6-3h0.8
			c0.5,0,0.9,0.3,1.2,1v0.4c0,1-1.1,2.3-3.2,3.7c-1,0.4-1.8,0.6-2.6,0.6h-0.2c-1.5-0.2-3-1-4.5-2.4c-1.6-1.4-3-6.7-4.2-15.9
			c-0.4-2-0.6-5.2-0.6-9.7V74c0.1-9.4,1.7-15.2,4.5-17.5C-229,55.7-228,55.4-227.5,55.4z"/>
		<path d="M-208.3,54.8c2.9,0,5.1,6.3,6.5,18.9c0.1,1.2,0.1,2.7,0.1,4.5v0.5c0,0.4,0,0.7-0.1,1.1c0.1,0.1,0.1,0.5,0.1,1.1v0.1
			c0,0.6,0,1-0.1,1.1c0.1,0.4,0.1,0.6,0.1,0.7c0,9.7-1.3,15.8-4,18.2c-1.1,0.5-1.8,0.7-2.3,0.7h-1c-3.5-0.9-5.6-5.3-6.4-13.3
			l-0.4-5.6c0-12.9,1.5-21.8,4.6-26.9C-210.1,55.3-209.2,54.8-208.3,54.8z M-212.9,82.5c0,5,0.6,9.5,1.9,13.2c1,2.2,1.9,3.3,2.4,3.3
			h0.1c1.3,0,2.1-1.1,2.6-3.3c0.9-2.3,1.4-7.3,1.4-14.9v-2.7c0-5.3-0.9-11.3-2.6-18.2c-0.6-1.4-1-2.1-1.3-2.3
			c-0.5,0.2-0.8,0.5-0.9,0.9C-211.7,63.9-212.9,71.9-212.9,82.5z"/>
		<path d="M-194.2,54.3c1,0.3,4,7.6,8.9,21.8h-1.1c0-0.6,2.2-7.6,6.5-21h1.5l0.6,1.2l0,1.5c-0.2,8.1-0.4,14.9-0.4,20.5
			c0,2.2,0.4,10,1.2,23.7l-1.4,0.7c-1.1,0-2-7.6-2.5-22.8V64h1.1c-3,10-4.9,15.3-5.5,15.8c-1.4-0.1-4-6-8-17.8h1v-0.3l1.9,39.5
			l-1.3,0.7c-1.2,0-1.8-0.5-1.8-1.5c-0.7-23.6-1.5-38.8-2.3-45.4L-194.2,54.3z"/>
		<path d="M-169.3,53.8c4.5,0,7.6,2.1,9.2,6.3c0.3,0.9,0.5,2,0.5,3.3c0,5.7-0.9,12-2.8,18.8c-1,1.8-2.4,3.2-4.2,4.1
			c-0.7,0-1-0.1-1-0.3v0.1c0,1.2,0,2.2,0.1,3c-0.1,0.8-0.1,1.3-0.1,1.4c0.3,5.1,0.4,7.9,0.4,8.3c0.3,0,0.4,0.6,0.4,1.6v0.5
			c-0.3,1-0.8,1.6-1.4,1.8h-0.4c-0.4,0-0.9-0.4-1.3-1.1v-1.1v-0.8c-0.1-0.4-0.1-1.3-0.3-2.8c0-0.6,0-0.8,0.1-0.8l-0.4-5
			c0.1-0.9,0.1-1.6,0.1-2c-0.1-1.7-0.1-2.6-0.1-2.8c-0.3-0.2-0.5-0.6-0.5-1.1c0.2-0.8,0.3-1.2,0.4-1.2c-0.1-1.9-0.2-3.1-0.2-3.7
			l0.6-24c-0.1,0-0.2-0.3-0.2-1V55C-170.3,54.6-170,54.2-169.3,53.8z M-167.2,56.6l-0.6,23.7c0.1,1.9,0.1,3.1,0.1,3.6l-0.3-0.2
			c0.6,0,1.3-0.5,2.1-1.4c1.3-0.9,2.5-6.3,3.4-16.3c0.1-1.6,0.1-2.7,0.1-3.2c0-2.1-1.2-4.1-3.5-5.8
			C-166.5,56.8-166.9,56.7-167.2,56.6z"/>
		<path d="M-148.9,55.1h0.3c1.5,0.7,2.8,2.5,3.7,5.3c2.4,7.8,4.1,17.8,5.3,29.9c0.7,3.9,1.1,7.4,1.1,10.5c-0.3,0.7-1,1-2.2,1
			c-0.5-1-1.1-4.8-1.8-11.4c-0.2-0.7-0.6-3.5-1.2-8.5l-0.3,0c-4,0.4-6.1,0.7-6.1,0.8V88l-0.9,12.4c0.2,0.3,0.3,0.6,0.3,1
			c0,0.4-0.4,0.8-1.1,1.3c-1.4,0-2.2-0.7-2.2-2.2c0.7-9.6,1-15.3,1-17.2c-0.1-1.2-0.1-2.5-0.1-3.8c0-6.5,0.6-13.5,1.5-20.8
			C-151,56.3-150.2,55.1-148.9,55.1z M-148.3,58.6c-1.1,4.4-1.6,10.9-1.6,19.3c-0.1,0-0.1,0.9-0.1,2.6V80c2.1-0.6,4.1-0.9,6.2-0.9
			v0.5c0-2.7-1.4-9.2-4.2-19.5C-148.6,58.9-148.7,58.4-148.3,58.6z"/>
		<path d="M-122.2,55.6l0.7,1V57c0,0.3-0.4,0.8-1.1,1.3h-1.6c-1.9,0-3.2,0.7-3.8,2.2c-0.7,1.9-1,4-1,6.4c0,1.4,0.6,3.8,1.8,7.1
			c0.4,0.8,2.6,3.2,6.8,7.2c2.2,3.4,3.4,6.7,3.4,10c0,2.6-0.5,5.1-1.6,7.6c-0.6,1.3-2,2.4-4.2,3.3c-0.9,0.5-1.6,0.7-2.2,0.7
			c-0.8,0-1.4-0.4-1.7-1.1v-0.5c0-0.7,0.7-1.1,2-1.2c2.4-1,3.6-2,3.6-3c0.8-1.6,1.2-3.7,1.2-6.2c0-3.3-1.4-6.5-4.2-9.6
			c-2.3-1.9-4-3.7-5.2-5.4c-0.8-1-1.6-3.4-2.4-7.3c0-0.5,0-1.1-0.1-1.8c0-3,0.5-5.7,1.6-8C-128.9,56.6-126.2,55.6-122.2,55.6z"/>
		<path d="M-103.8,55.6l0.7,1V57c0,0.3-0.4,0.8-1.2,1.3h-1.6c-1.9,0-3.2,0.7-3.8,2.2c-0.7,1.9-1,4-1,6.4c0,1.4,0.6,3.8,1.8,7.1
			c0.4,0.8,2.6,3.2,6.8,7.2c2.2,3.4,3.4,6.7,3.4,10c0,2.6-0.5,5.1-1.6,7.6c-0.6,1.3-2,2.4-4.2,3.3c-0.9,0.5-1.6,0.7-2.2,0.7
			c-0.8,0-1.4-0.4-1.7-1.1v-0.5c0-0.7,0.7-1.1,2-1.2c2.4-1,3.6-2,3.6-3c0.8-1.6,1.2-3.7,1.2-6.2c0-3.3-1.4-6.5-4.2-9.6
			c-2.3-1.9-4-3.7-5.2-5.4c-0.8-1-1.6-3.4-2.4-7.3c0-0.5,0-1.1-0.1-1.8c0-3,0.5-5.7,1.6-8C-110.6,56.6-107.9,55.6-103.8,55.6z"/>
		<path d="M-90.4,55.3h0.5c1.1,0,1.7,2.6,1.7,7.9v1.8c0,1.8-0.3,6.4-0.8,13.7c0,0.3,0,0.6,0.1,1C-88.9,84.4-89,88.2-89,91v8.8
			c0,0.1,0.1,0.6,0.3,1.3c-0.2,1.1-0.6,1.7-1.3,1.7h-0.5c-0.9,0-1.3-1.4-1.3-4.3c0-15.7,0.3-26.6,0.8-32.5v-3.8c0-2.1-0.1-4-0.4-5.7
			C-91.5,56.1-91.1,55.7-90.4,55.3z"/>
		<path d="M-73.7,54.8c2.9,0,5.1,6.3,6.5,18.9c0.1,1.2,0.1,2.7,0.1,4.5v0.5c0,0.4,0,0.7-0.1,1.1c0.1,0.1,0.1,0.5,0.1,1.1v0.1
			c0,0.6,0,1-0.1,1.1c0.1,0.4,0.1,0.6,0.1,0.7c0,9.7-1.3,15.8-4,18.2c-1.1,0.5-1.8,0.7-2.3,0.7h-1c-3.5-0.9-5.6-5.3-6.4-13.3
			l-0.4-5.6c0-12.9,1.5-21.8,4.6-26.9C-75.5,55.3-74.6,54.8-73.7,54.8z M-78.3,82.5c0,5,0.6,9.5,1.9,13.2c1,2.2,1.9,3.3,2.4,3.3h0.1
			c1.3,0,2.1-1.1,2.6-3.3c0.9-2.3,1.4-7.3,1.4-14.9v-2.7c0-5.3-0.9-11.3-2.6-18.2c-0.6-1.4-1-2.1-1.3-2.3c-0.5,0.2-0.8,0.5-0.9,0.9
			C-77.1,63.9-78.3,71.9-78.3,82.5z"/>
		<path d="M-58.9,54.5c0.9,0,3.1,6.4,6.6,19.1c0.5,2.9,2.5,10,6,21.4h-1.1v-0.5c-0.5-11-0.7-17.2-0.7-18.5c0-0.4,0.1-1.8,0.2-4.1
			c0-0.2,0-0.8,0-1.6c0.2-1.8,0.3-3.2,0.3-4.2v-9.7c0.1-1,0.7-1.4,1.7-1.4l1.3,0.7C-44.9,61-45,65-45,67.6v3.8
			c0,7.9,0.2,18.2,0.7,30.9l-1.3,0.7c-1.1,0-4.4-10.2-10.1-30.6L-59,60.2l1.2,2l0.1-2c0.1,1.9,0.2,3.4,0.2,4.5l0,1.2
			c-0.2,5-0.3,8.5-0.3,10.6c0,10.1,0.4,18.7,1.2,25.7h-1.6c-1,0-1.5-0.5-1.5-1.4c-0.5-7.9-0.7-15-0.7-21.2V56
			C-60.2,55-59.7,54.5-58.9,54.5z"/>
	</g>
	<g>
		<path d="M-141.6,109.1c3.3,0,5.5,1.5,6.7,4.4c0.2,0.7,0.4,1.5,0.4,2.4c0,4.3-0.8,9-2.3,14.1c-0.7,1.2-1.7,2.1-3,2.8
			c-0.8,0.1-1.3,0.2-1.3,0.3v0.1c0,0.9,0,1.7,0.1,2.3c-0.1,0.6-0.1,0.9-0.1,1c0.2,3.9,0.3,6.1,0.3,6.7c0.2,0,0.3,0.3,0.3,0.8v0.3
			c-0.2,0.5-0.4,0.8-0.6,0.9h-0.2c-0.1,0-0.2-0.1-0.4-0.4V144c0-0.1,0-0.1,0.1-0.1c-0.1-0.7-0.2-1.6-0.3-2.7c0-0.1,0-0.1,0.1-0.1
			l-0.3-4.3c0.1-0.7,0.1-1.2,0.1-1.5c-0.1-1.2-0.1-2-0.1-2.4c-0.3-0.1-0.4-0.3-0.4-0.5c0.1-0.3,0.2-0.4,0.4-0.4
			c-0.1-1.8-0.2-2.9-0.2-3.3l0.5-18.7c-0.1,0-0.2-0.1-0.2-0.2v-0.3C-142,109.4-141.9,109.3-141.6,109.1z M-140.8,110.1l-0.5,18.6
			c0.1,1.4,0.1,2.4,0.1,3l0.2,0.1c0.8,0,1.6-0.4,2.4-1.2c1.2-0.8,2.2-5,2.9-12.6c0.1-1.2,0.1-2.1,0.1-2.5c0-1.8-1.1-3.4-3.2-4.8
			C-139.3,110.4-140,110.3-140.8,110.1z"/>
		<path d="M-128.3,107.3h0.2c0.2,0.2,0.8,0.4,1.9,0.6c1.3,0.5,2.4,1.5,3.3,2.9c1.2,2.8,1.8,4.9,1.8,6.3v1c0,4.5-1.3,7.7-4,9.7
			c3.1,0.7,4.9,4.3,5.4,10.7v3.9c0,0.6,0,1.4,0.1,2.6l-0.3,0.2h-0.3l-0.4-0.3c-0.1-1.4-0.1-2.4-0.1-3.1V138c0-2.6-0.8-5.2-2.4-7.9
			c-1.1-1-2.1-1.5-2.9-1.5h-0.1c0.1,1.5,0.1,2.6,0.1,3.3v3.9c0.1,3.4,0.2,5.3,0.2,5.7v0.2c-0.1,0.3-0.4,0.4-0.6,0.4
			c-0.1,0-0.3-0.1-0.5-0.4l0.1-0.7c-0.1-2.9-0.2-4.8-0.2-5.7v-6.2c-0.3,0-0.5-0.1-0.6-0.4v-0.3c0.1-0.3,0.3-0.4,0.5-0.4
			c-0.4-9.4-0.8-16.2-1.4-20.4L-128.3,107.3z M-127.4,108.7c0.4,5,0.8,11.2,1.2,18.6c2.7-1.8,4.1-4.7,4.1-8.7v-1.4
			c0-1.8-0.8-4.1-2.3-6.9c-1.2-1-2-1.5-2.6-1.5H-127.4z"/>
		<path d="M-108.3,109.9c2,0,3.6,4.6,4.7,13.9c0.1,0.9,0.1,2,0.1,3.4v0.4c0,0.2,0,0.5-0.1,0.9c0.1,0.1,0.1,0.3,0.1,0.7v0.1
			c0,0.4,0,0.6-0.1,0.7c0.1,0.4,0.1,0.6,0.1,0.6c0,7.2-1,11.7-3,13.3c-0.7,0.3-1.2,0.4-1.5,0.4h-0.7c-2.5-0.6-4.1-3.8-4.7-9.5
			l-0.3-4.2c0-9.6,1.2-16.3,3.7-20C-109.4,110.2-108.8,109.9-108.3,109.9z M-112.7,130.3c0,3.9,0.5,7.3,1.6,10.2
			c1,1.9,1.9,2.9,2.6,2.9h0.1c1.4,0,2.3-1,2.7-2.9c0.8-1.8,1.2-5.6,1.2-11.4v-2.1c0-4-0.7-8.6-2.2-13.9c-0.5-1.1-1.1-1.9-1.6-2.3
			c-0.8,0.3-1.3,0.7-1.5,1.1C-111.7,116.1-112.7,122.2-112.7,130.3z"/>
		<path d="M-92.5,111.2c0.2,0,0.4,0.1,0.6,0.2c0,0,0,0.5-0.1,1.3c0.2,2.5,0.3,8.6,0.3,18.1v0.7c0,0.7,0.1,2.9,0.2,6.6
			c-0.3,4.7-1.3,7.1-3.2,7.1H-95c-1.9-0.5-2.8-1-2.8-1.7c-0.4-0.2-0.6-1.8-0.6-4.8c0.2-0.2,0.4-0.3,0.5-0.3c0.4,0.1,0.5,0.3,0.5,0.7
			c0,3.2,0.5,4.8,1.6,4.8c0.4,0.2,0.7,0.3,1.1,0.3h0.1c1.2,0,1.9-1.9,2.2-5.8v-0.5c-0.1-3.6-0.2-5.7-0.2-6.5V130
			c0-3.8,0-8.7-0.1-14.7c-0.1-0.9-0.2-1.9-0.2-3v-0.7C-93,111.6-92.8,111.4-92.5,111.2z"/>
		<path d="M-79.6,109.7l0.2,0.1c0.1,0,0.1,0,0.1-0.1c2.2,0.2,3.4,0.4,3.4,0.7v0.1c-0.1,0.3-0.3,0.5-0.5,0.5l-3.1-0.3
			c-0.2,0-0.9,0-2.1,0.1l0.1,1.2c0,1.1,0.2,5.6,0.5,13.5h0.7c0.6,0,1,0,1.4-0.1c1.6,0.1,2.7,0.2,3.5,0.2l0.3,0.4v0.3
			c0,0.2-0.1,0.3-0.4,0.3c-0.6,0-1.6-0.1-3.1-0.2c-0.9,0.1-1.8,0.1-2.4,0.1v0.4c0,4.8,0.2,10.4,0.7,16.7c0.1,0,0.1,0,0.1,0.1
			c2.6-0.1,4.2-0.2,4.7-0.2c0.3,0.1,0.5,0.3,0.6,0.5v0.1c0,0.1-0.1,0.2-0.4,0.4c-2.7,0.1-4.3,0.1-4.8,0.2c-0.8,0-1.3-0.4-1.3-1.3
			c-0.5-6.5-0.7-12-0.7-16.3V124c-0.4-6-0.5-10.1-0.5-12.2c-0.2-1-0.3-1.6-0.3-1.6l0.4-0.3h1.2C-80.9,109.8-80.3,109.8-79.6,109.7z"
			/>
		<path d="M-63.2,110.3h0.7c1.3,0.2,1.9,0.7,1.9,1.3c0,0.1-0.1,0.2-0.4,0.4h-0.4c-0.5-0.5-0.9-0.8-1.5-0.8c-1.8,0.6-2.6,1.1-2.6,1.6
			c-1.4,2.6-2.1,6.2-2.1,10.7v1.7c0,3,0.4,6.7,1.3,11c0.5,3.1,1.2,5.2,2.1,6.4c1.1,0.9,2,1.4,2.8,1.4c1,0,2.2-0.8,3.4-2.3h0.3
			c0.1,0,0.2,0.1,0.3,0.3v0.2c0,0.6-0.8,1.4-2.3,2.4c-0.6,0.3-1.2,0.4-1.8,0.4h-0.1c-1-0.1-2.1-0.7-3.3-1.6c-1.2-1-2.3-4.9-3.3-11.7
			c-0.4-1.5-0.5-3.9-0.5-7.3v-0.6c0.1-6.9,1.3-11.2,3.5-12.8C-64.1,110.6-63.5,110.3-63.2,110.3z"/>
		<path d="M-42,111.7l0.3,0.4v0.3c0,0.3-1,0.4-2.9,0.4h-2.9c-0.1,0-0.2,0.1-0.3,0.4l0.2,4.7c-0.1,0.4-0.1,0.7-0.1,0.7
			c0.6,10.3,0.9,17.8,0.9,22.2c0.1,0.1,0.1,0.2,0.1,0.3c-0.1,0.1-0.1,0.2-0.1,0.3l0.1,0.6c-0.1,0.2-0.2,0.4-0.3,0.4h-0.4
			c-0.1,0-0.2-0.1-0.4-0.4c0-0.1,0-0.4,0.1-1c0-1.5-0.3-8.9-0.9-22.2c0-2.2-0.1-4.1-0.2-5.9l-0.2-0.1h-0.3l-3.4,0.3
			c-0.2-0.2-0.3-0.5-0.3-0.8c0-0.1,0.1-0.2,0.4-0.4c0.5,0.1,0.8,0.2,0.8,0.2c1.4-0.1,2.3-0.2,2.8-0.2h4.3
			C-43.9,111.9-42.9,111.8-42,111.7z"/>
	</g>
	<g>
		<path d="M-269.9,61.2l0.3,0.3v0.2c0,0.3-0.8,0.4-2.4,0.4h-2.4c-0.1,0-0.2,0.1-0.3,0.3l0.2,4c-0.1,0.4-0.1,0.6-0.1,0.6
			c0.5,8.9,0.8,15.3,0.8,19.2c0.1,0.1,0.1,0.2,0.1,0.2c-0.1,0.1-0.1,0.2-0.1,0.2l0.1,0.5c-0.1,0.2-0.2,0.3-0.3,0.3h-0.3
			c-0.1,0-0.2-0.1-0.3-0.3c0-0.1,0-0.4,0.1-0.8c0-1.3-0.3-7.6-0.8-19.1c0-1.9-0.1-3.6-0.2-5.1l-0.2-0.1h-0.3l-2.8,0.2
			c-0.2-0.2-0.3-0.4-0.3-0.7c0-0.1,0.1-0.2,0.3-0.3c0.4,0.1,0.6,0.2,0.7,0.2c1.1-0.1,1.9-0.2,2.3-0.2h3.6
			C-271.4,61.4-270.6,61.3-269.9,61.2z"/>
		<path d="M-258.5,57.3h0.2c0.2,0.1,0.3,0.3,0.3,0.4c0,2.8-0.1,4.9-0.2,6.5l0.2,9.2c0.1,0.2,0.2,0.3,0.2,0.4
			c-0.1,0.2-0.1,0.3-0.2,0.3c0.1,2.8,0.2,7.6,0.3,14.4c-0.1,0.3-0.1,0.9-0.1,1.8l-0.3,0.2h-0.3l-0.3-0.3c0-0.6,0-1.1,0.1-1.5
			c-0.1-8.1-0.1-12.9-0.3-14.5c-2.7,0.1-4.3,0.1-4.6,0.3c0.1,1.1,0.2,2.2,0.2,3.3c0,2.3,0,4.4-0.1,6.2c0.1,1,0.1,2.9,0.1,5.8
			c-0.2,0.1-0.4,0.2-0.5,0.2c-0.1,0-0.2-0.1-0.3-0.4v-0.8c0-2.4,0-4-0.1-4.9c0.1-1.4,0.1-3.2,0.1-5.3v-1.3c-0.2-2.9-0.3-4.9-0.3-6
			c0.2-6.6,0.3-10.8,0.3-12.6c-0.1-0.2-0.1-0.4-0.1-0.6l0.3-0.3h0.2c0.3,0.2,0.4,0.4,0.4,0.7c0,1.1-0.1,5.5-0.3,13.3v1.6l0.1,0.2
			c0.4-0.1,1.9-0.2,4.6-0.3c-0.1-2.1-0.1-3.7-0.1-4.6v-4.1c0-0.1,0-0.3-0.1-0.4l0.1-0.2c0.1-2.8,0.1-5,0.1-6.5L-258.5,57.3z"/>
		<path d="M-248.2,59.5l0.2,0.1c0.1,0,0.1,0,0.1-0.1c1.9,0.2,2.8,0.4,2.8,0.6v0.1c-0.1,0.3-0.2,0.4-0.4,0.4l-2.5-0.3
			c-0.2,0-0.7,0-1.7,0.1l0.1,1.1c0,1,0.1,4.8,0.4,11.7h0.6c0.5,0,0.9,0,1.1-0.1c1.3,0.1,2.3,0.2,2.9,0.2l0.3,0.4v0.3
			c0,0.2-0.1,0.3-0.3,0.3c-0.5,0-1.3-0.1-2.5-0.2c-0.8,0.1-1.4,0.1-2,0.1v0.4c0,4.2,0.2,9,0.6,14.4c0.1,0,0.1,0,0.1,0.1
			c2.2-0.1,3.5-0.2,3.9-0.2c0.2,0.1,0.4,0.2,0.5,0.4v0.1c0,0.1-0.1,0.2-0.3,0.4c-2.2,0.1-3.5,0.1-4,0.2c-0.7,0-1-0.4-1-1.1
			c-0.4-5.6-0.6-10.3-0.6-14.1v-2.8c-0.3-5.2-0.4-8.7-0.4-10.5c-0.2-0.9-0.3-1.4-0.3-1.4l0.3-0.3h1
			C-249.3,59.6-248.8,59.6-248.2,59.5z"/>
	</g>
	<path class="st2" d="M-207,110c-0.7-1-6,1-10.5,3.9c-4.3,2.7-10.2,6.4-12,13.3c-0.5,2.1-2,7.6,1.5,11.2c3.2,3.3,9.3,3.6,12.7,1.2
		c4.3-3,4.2-5.9,4.1-9.7c-0.1-3.6-1-4.9-0.5-7.5C-210.7,116.7-206.3,111-207,110z"/>
	<path class="st3" d="M-223.3,126.5c-1.2,0.4-0.9,5.8,0.5,10.9c1.3,4.8,3.1,11.3,9.4,15.2c1.9,1.1,6.8,4.2,11.5,2.1
		c4.2-2,6.4-7.4,5.1-11.3c-1.6-4.9-4.5-5.7-8.3-6.8c-3.6-1-5.1-0.6-7.6-1.9C-217.8,132-222.2,126.1-223.3,126.5z"/>
	<path class="st4" d="M-212.2,146.6c0,1.2,5.4,2.6,10.9,2.9c5.1,0.3,12.1,0.6,17.8-3.9c1.7-1.4,6.3-5,5.6-9.9
		c-0.6-4.5-5.3-8.2-9.5-8.2c-5.3,0-7,2.4-9.2,5.6c-2.1,3-2.2,4.5-4.2,6.4C-205,143.3-212.1,145.4-212.2,146.6z"/>
	<path class="st5" d="M-188.9,142.5c1.2,0.4,4.2-4.2,6.2-9.1c1.8-4.6,4.4-11,1.6-17.6c-0.8-2-3-7.3-8-8.2c-4.6-0.8-9.7,2.4-11,6.2
		c-1.7,4.8,0.2,7.1,2.6,10.2c2.3,2.9,3.8,3.4,5,5.8C-190,134.9-190.1,142.2-188.9,142.5z"/>
	<path class="st6" d="M-185.7,119.9c0.7-1-2.8-5.2-7.1-8.5c-4-3.1-9.4-7.4-16.8-6.9c-2.2,0.1-8.1,0.5-10.6,4.9
		c-2.2,4-0.7,9.6,2.7,12c4.2,3,7.1,2,10.8,0.7c3.5-1.2,4.5-2.4,7.2-2.8C-193.5,118.6-186.5,120.9-185.7,119.9z"/>
	<path class="st2" d="M-219.1,123.2c0.4,0.5,0.8,1,1,1.6c2,0.4,4.4,0.3,6.3,0.3c-0.1-0.8-0.1-1.7,0.1-2.7c1-5.6,5.5-11.4,4.8-12.3
		c-0.7-1-6,1-10.5,3.9c-1.3,0.8-2.7,1.7-4.1,2.7C-221.2,118.9-220.7,121.3-219.1,123.2z"/>
</g>
</svg>
